# xmcd CD database file
#
# Track frame offsets:
#	150
#	36373
#	72586
#	108718
#	144939
#	180946
#
# Disc length: 2893 seconds
#
# Revision: 0
# Processed by: cddbd v1.5.1PL0 Copyright (c) Steve Scherf et al.
# Submitted via: CDex 1.51
#
DISCID=520b4b06
DTITLE=Dominique LANGHAM - Pleine Lune
DYEAR=2003
DGENRE=New Age
TTITLE0=Premères lueurs du crepuscule
TTITLE1=Clair obscur
TTITLE2=Au coeur de la nuit
TTITLE3=Reflets
TTITLE4=A l'aube d'un nouveau jour
TTITLE5=L'astre s'endort
EXTD=YEAR: 2003
EXTT0=
EXTT1=
EXTT2=
EXTT3=
EXTT4=
EXTT5=
PLAYORDER=
